<svg id="Layer_1" data-name="Layer 1" xmlns="http://www.w3.org/2000/svg" xmlns:xlink="http://www.w3.org/1999/xlink" viewBox="0 0 470 350"><defs><style>.cls-1,.cls-3{fill:none;}.cls-2{clip-path:url(#clip-path);}.cls-3{stroke:#ebebeb;stroke-linejoin:round;stroke-width:1.07px;}.cls-4{fill:#deb887;}.cls-5{fill:#4f6460;}.cls-25,.cls-6{font-size:9px;}.cls-10,.cls-25,.cls-6,.cls-8,.cls-9{fill:#4d4d4d;}.cls-6{font-family:Helvetica, Helvetica;}.cls-10,.cls-12,.cls-14,.cls-16,.cls-17,.cls-18,.cls-19,.cls-20,.cls-21,.cls-22,.cls-23,.cls-24,.cls-25,.cls-7,.cls-8,.cls-9{isolation:isolate;}.cls-10,.cls-14,.cls-16,.cls-17,.cls-18,.cls-19,.cls-20,.cls-21,.cls-22,.cls-23,.cls-24,.cls-8,.cls-9{font-size:11px;}.cls-10,.cls-14,.cls-16,.cls-17,.cls-18,.cls-19,.cls-20,.cls-21,.cls-22,.cls-23,.cls-24,.cls-25,.cls-8,.cls-9{font-family:RobotoSlab-Regular, Roboto Slab;}.cls-19,.cls-9{letter-spacing:-0.025em;}.cls-10,.cls-20{letter-spacing:-0.05em;}.cls-11{letter-spacing:-0.0049em;}.cls-12{font-size:18px;font-family:RobotoSlab-Bold, Roboto Slab;font-weight:700;}.cls-12,.cls-14,.cls-16,.cls-17,.cls-18,.cls-19,.cls-20,.cls-21,.cls-22,.cls-23,.cls-24{fill:#262626;}.cls-13{letter-spacing:-0.0078em;}.cls-15{letter-spacing:-0.0098em;}.cls-16{letter-spacing:-0.014em;}.cls-17{letter-spacing:-0.04em;}.cls-18{letter-spacing:-0.02em;}.cls-21{letter-spacing:-0.029em;}.cls-22{letter-spacing:-0.01em;}.cls-23{letter-spacing:-0.039em;}.cls-24{letter-spacing:0.014em;}.cls-26{letter-spacing:-0.0093em;}</style><clipPath id="clip-path"><rect class="cls-1" x="65.36" y="46.32" width="400.16" height="268.86"/></clipPath></defs><title>Artboard 1</title><g class="cls-2"><line class="cls-3" x1="83.55" y1="315.18" x2="83.55" y2="46.32"/><line class="cls-3" x1="174.5" y1="315.18" x2="174.5" y2="46.32"/><line class="cls-3" x1="265.44" y1="315.18" x2="265.44" y2="46.32"/><line class="cls-3" x1="356.39" y1="315.18" x2="356.39" y2="46.32"/><line class="cls-3" x1="447.33" y1="315.18" x2="447.33" y2="46.32"/><rect class="cls-4" x="83.55" y="293.8" width="5.29" height="18.33"/><rect class="cls-4" x="83.55" y="273.43" width="16.18" height="18.33"/><rect class="cls-4" x="83.55" y="253.06" width="21.47" height="18.33"/><rect class="cls-4" x="83.55" y="232.69" width="23.45" height="18.33"/><rect class="cls-4" x="83.55" y="212.32" width="76.79" height="18.33"/><rect class="cls-4" x="83.55" y="191.96" width="86.78" height="18.33"/><rect class="cls-4" x="83.55" y="171.59" width="129.23" height="18.33"/><rect class="cls-4" x="83.55" y="151.22" width="141.86" height="18.33"/><rect class="cls-4" x="83.55" y="130.85" width="150.13" height="18.33"/><rect class="cls-4" x="83.55" y="110.48" width="185.22" height="18.33"/><rect class="cls-4" x="83.55" y="90.11" width="209.97" height="18.33"/><rect class="cls-5" x="83.55" y="69.75" width="232.15" height="18.33"/><rect class="cls-4" x="83.55" y="49.38" width="331.46" height="18.33"/></g><text class="cls-6" transform="translate(77.2998 326.5801)">0.0</text><text class="cls-6" transform="translate(168.2402 326.5801)">0.5</text><text class="cls-6" transform="translate(259.1904 326.5801)">1.0</text><text class="cls-6" transform="translate(350.1299 326.5801)">1.5</text><text class="cls-6" transform="translate(441.0801 326.5801)">2.0</text><g class="cls-7"><text class="cls-8" transform="translate(4.3599 37.75)">Number of Acti</text><text class="cls-9" transform="translate(83.8252 37.75)">v</text><text class="cls-8" transform="translate(89.6895 37.75)">e Airbnb Rentals </text><text class="cls-10" transform="translate(179.4405 37.75)">P</text><text class="cls-8" transform="translate(185.878 37.75)">er 100 Housi<tspan class="cls-11" x="63.5347" y="0">n</tspan><tspan x="70.5601" y="0">g Units</tspan></text></g><text class="cls-12" transform="translate(3.3599 25.8101)">Airbnb Has an Impact on Cities of All Si<tspan class="cls-13" x="336.5771" y="0">z</tspan><tspan x="345.8408" y="0">es</tspan></text><text class="cls-14" transform="translate(48.5732 307.0327)">B<tspan class="cls-15" x="7.2241" y="0">r</tspan><tspan x="11.666" y="0">onx</tspan></text><g class="cls-7"><text class="cls-14" transform="translate(41.084 266.4036)">Queen</text><text class="cls-16" transform="translate(74.4385 266.4036)">s</text></g><g class="cls-7"><text class="cls-14" transform="translate(38.1366 246.0896)">Chicag</text><text class="cls-17" transform="translate(74.1604 246.0896)">o</text></g><g class="cls-7"><text class="cls-14" transform="translate(43.4235 286.7184)">De</text><text class="cls-18" transform="translate(56.9587 286.7184)">n</text><text class="cls-19" transform="translate(63.8175 286.7184)">v</text><text class="cls-14" transform="translate(69.6818 286.7184)">e</text><text class="cls-20" transform="translate(75.5954 286.7184)">r</text></g><g class="cls-7"><text class="cls-14" transform="translate(16.8336 225.7764)">Los A<tspan class="cls-11" x="29.0093" y="0">n</tspan><tspan x="36.0347" y="0">gele</tspan></text><text class="cls-16" transform="translate(74.4386 225.7764)">s</text></g><text class="cls-14" transform="translate(32.5191 205.4613)">B<tspan class="cls-15" x="7.2241" y="0">r</tspan><tspan x="11.666" y="0">o</tspan><tspan class="cls-15" x="17.8374" y="0">o</tspan><tspan x="23.9014" y="0">klyn</tspan></text><text class="cls-14" transform="translate(43.7179 185.1477)">Bos<tspan class="cls-15" x="19.0029" y="0">t</tspan><tspan x="22.9238" y="0">on</tspan></text><text class="cls-14" transform="translate(22.169 164.8337)">Manhattan</text><g class="cls-7"><text class="cls-21" transform="translate(45.1541 124.2055)">A</text><text class="cls-14" transform="translate(52.8808 124.2055)">ustin</text></g><g class="cls-7"><text class="cls-14" transform="translate(6.0951 144.5194)">San F</text><text class="cls-22" transform="translate(35.5018 144.5194)">r</text><text class="cls-14" transform="translate(39.9413 144.5194)">a<tspan class="cls-11" x="6.0586" y="0">n</tspan><tspan x="13.084" y="0">cisc</tspan></text><text class="cls-17" transform="translate(74.1605 144.5194)">o</text></g><g class="cls-7"><text class="cls-23" transform="translate(17.2592 83.5774)">W</text><text class="cls-14" transform="translate(27.0888 83.5774)">ashi<tspan class="cls-11" x="22.3813" y="0">n</tspan><tspan x="29.4067" y="0">g</tspan><tspan class="cls-15" x="35.6318" y="0">t</tspan><tspan x="39.5527" y="0">on</tspan></text></g><g class="cls-7"><text class="cls-14" transform="translate(30.3043 103.8912)">Nashvill</text><text class="cls-16" transform="translate(74.1324 103.8912)">e</text></g><g class="cls-7"><text class="cls-14" transform="translate(13.5586 63.263)">N</text><text class="cls-18" transform="translate(21.9375 63.263)">e</text><text class="cls-14" transform="translate(27.6309 63.263)">w O</text><text class="cls-24" transform="translate(47.2192 63.263)">r</text><text class="cls-14" transform="translate(51.9229 63.263)">lean</text><text class="cls-16" transform="translate(74.4385 63.263)">s</text></g><text class="cls-25" transform="translate(277.6396 342.7598)">Sou<tspan class="cls-26" x="15.9961" y="0">r</tspan><tspan x="19.6348" y="0">ce: DataLensDC, Inside Airbnb, Census</tspan></text></svg>