<svg id="Layer_1" data-name="Layer 1" xmlns="http://www.w3.org/2000/svg" xmlns:xlink="http://www.w3.org/1999/xlink" viewBox="0 0 490 400"><defs><style>.cls-1{fill:none;}.cls-2{clip-path:url(#clip-path);}.cls-3{fill:#4f6460;}.cls-14,.cls-15,.cls-4,.cls-6{font-size:11px;}.cls-13,.cls-15,.cls-4{fill:#4d4d4d;}.cls-13,.cls-14,.cls-15,.cls-4,.cls-6{font-family:RobotoSlab-Regular, Roboto Slab;}.cls-14,.cls-15,.cls-5,.cls-6,.cls-9{isolation:isolate;}.cls-6,.cls-9{fill:#262626;}.cls-7{letter-spacing:-0.0054em;}.cls-8{letter-spacing:-0.0049em;}.cls-9{font-size:18px;font-family:RobotoSlab-Bold, Roboto Slab;font-weight:700;}.cls-10{letter-spacing:-0.0596em;}.cls-11{letter-spacing:-0.0073em;}.cls-12{letter-spacing:-0.0063em;}.cls-13{font-size:9px;}.cls-14{fill:#fff;}</style><clipPath id="clip-path"><rect class="cls-1" x="0.22" y="34.48" width="490.3" height="337.65"/></clipPath></defs><title>Artboard 1</title><g class="cls-2"><rect class="cls-3" x="17.73" y="49.83" width="105.06" height="306.95"/><rect class="cls-3" x="134.47" y="315.21" width="105.06" height="41.57"/><rect class="cls-3" x="251.21" y="338.76" width="105.06" height="18.02"/><rect class="cls-3" x="367.95" y="352.05" width="105.06" height="4.73"/></g><text class="cls-4" transform="translate(41.2598 368.5195)"><tspan xml:space="preserve"> 1 listing</tspan></text><text class="cls-4" transform="translate(178 368.5195)">2</text><text class="cls-4" transform="translate(287.1104 368.5195)">3 − 5</text><text class="cls-4" transform="translate(394.7197 368.5195)">6 or more</text><g class="cls-5"><text class="cls-6" transform="translate(22.0266 35.75)">Number of Hosts <tspan class="cls-7" x="90.4331" y="0">b</tspan><tspan x="96.7441" y="0">y number of Airbnb listi</tspan><tspan class="cls-8" x="221.3589" y="0">n</tspan><tspan x="228.3843" y="0">gs</tspan></text></g><text class="cls-9" transform="translate(20.3599 21.8101)">Most <tspan class="cls-10" x="47.4346" y="0">D</tspan><tspan x="58.7637" y="0">.C. Airbnb Hosts H</tspan><tspan class="cls-11" x="214.8047" y="0">a</tspan><tspan class="cls-12" x="224.5605" y="0">v</tspan><tspan x="234.7031" y="0">e a Si</tspan><tspan class="cls-8" x="279.7207" y="0">n</tspan><tspan x="291.0586" y="0">gle Listi</tspan><tspan class="cls-8" x="359.209" y="0">n</tspan><tspan x="370.5469" y="0">g</tspan></text><text class="cls-13" transform="translate(329.2197 388.5195)">Source: DataLensDC, Inside Airbnb</text><text class="cls-14" transform="translate(54.5266 62.75)">2,658</text><text class="cls-14" transform="translate(172.5266 327.75)">360</text><text class="cls-14" transform="translate(288.5266 349.75)">156</text><text class="cls-15" transform="translate(410.5266 346.75)">41</text></svg>