<svg id="Layer_1" data-name="Layer 1" xmlns="http://www.w3.org/2000/svg" xmlns:xlink="http://www.w3.org/1999/xlink" viewBox="0 0 480 430"><defs><style>.cls-1{fill:none;}.cls-2{clip-path:url(#clip-path);}.cls-3{fill:#4f6460;}.cls-17,.cls-4,.cls-6{font-size:11px;}.cls-18,.cls-4{fill:#4d4d4d;}.cls-17,.cls-18,.cls-4,.cls-6{font-family:RobotoSlab-Regular, Roboto Slab;}.cls-13,.cls-17,.cls-5,.cls-6{isolation:isolate;}.cls-13,.cls-6{fill:#262626;}.cls-7{letter-spacing:-0.0049em;}.cls-8{letter-spacing:-0.0098em;}.cls-9{letter-spacing:-0.0093em;}.cls-10{letter-spacing:-0.0054em;}.cls-11{letter-spacing:-0.0073em;}.cls-12{letter-spacing:-0.0063em;}.cls-13{font-size:18px;font-family:RobotoSlab-Bold, Roboto Slab;font-weight:700;}.cls-14{letter-spacing:-0.0117em;}.cls-15{letter-spacing:-0.0845em;}.cls-16{letter-spacing:-0.0391em;}.cls-17{fill:#fff;}.cls-18{font-size:9px;}</style><clipPath id="clip-path"><rect class="cls-1" x="4.7533" y="72.1467" width="473.1" height="337.65"/></clipPath></defs><title>Artboard 1</title><g class="cls-2"><rect class="cls-3" x="14.6133" y="87.4967" width="59.14" height="306.95"/><rect class="cls-3" x="80.3233" y="239.9167" width="59.14" height="154.53"/><rect class="cls-3" x="146.0333" y="287.7867" width="59.14" height="106.66"/><rect class="cls-3" x="211.7333" y="336.0767" width="59.14" height="58.37"/><rect class="cls-3" x="277.4433" y="333.9767" width="59.14" height="60.47"/><rect class="cls-3" x="343.1533" y="355.8167" width="59.14" height="38.63"/><rect class="cls-3" x="408.8633" y="249.5767" width="59.14" height="144.87"/></g><text class="cls-4" transform="translate(19.2202 405.5195)">1−9 stays</text><text class="cls-4" transform="translate(96.9199 405.5195)">10−19</text><text class="cls-4" transform="translate(162.6299 405.5195)">20−29</text><text class="cls-4" transform="translate(228.3398 405.5195)">30−39</text><text class="cls-4" transform="translate(294.04 405.5195)">40−49</text><text class="cls-4" transform="translate(359.75 405.5195)">50−59</text><text class="cls-4" transform="translate(430.46 405.5195)">60+</text><g class="cls-5"><text class="cls-6" transform="translate(16.0266 68.75)">Number of Airbnb w<tspan class="cls-7" x="105.7031" y="0">h</tspan><tspan class="cls-8" x="112.75" y="0">o</tspan><tspan x="118.814" y="0">le-unit </tspan><tspan class="cls-9" x="156.6104" y="0">r</tspan><tspan x="161.0576" y="0">entals </tspan><tspan class="cls-10" x="195.9429" y="0">b</tspan><tspan x="202.2539" y="0">y </tspan><tspan class="cls-7" x="211.229" y="0">h</tspan><tspan x="218.2759" y="0">osts with only o</tspan><tspan class="cls-7" x="300.8564" y="0">n</tspan><tspan x="307.8818" y="0">e listi</tspan><tspan class="cls-7" x="336.8589" y="0">n</tspan><tspan x="343.8843" y="0">g </tspan><tspan class="cls-10" x="0" y="13.2002">b</tspan><tspan x="6.311" y="13.2002">y number of st</tspan><tspan class="cls-11" x="81.458" y="13.2002">a</tspan><tspan x="87.436" y="13.2002">ys in p</tspan><tspan class="cls-9" x="122.1064" y="13.2002">r</tspan><tspan class="cls-12" x="126.5537" y="13.2002">e</tspan><tspan x="132.3975" y="13.2002">vious </tspan><tspan class="cls-12" x="163.3457" y="13.2002">y</tspan><tspan x="169.5171" y="13.2002">ear</tspan></text></g><text class="cls-13" transform="translate(14.3599 18.8101)">Most w<tspan class="cls-7" x="61.8662" y="0">h</tspan><tspan class="cls-8" x="73.2217" y="0">o</tspan><tspan x="83.1357" y="0">le-unit Airbnb listi</tspan><tspan class="cls-7" x="241.4355" y="0">n</tspan><tspan x="252.7734" y="0">gs f</tspan><tspan class="cls-8" x="283.4297" y="0">r</tspan><tspan x="290.8301" y="0">om si</tspan><tspan class="cls-7" x="337.1396" y="0">n</tspan><tspan x="348.4775" y="0">gle-listi</tspan><tspan class="cls-7" x="414.5713" y="0">n</tspan><tspan x="425.9092" y="0">g </tspan><tspan class="cls-7" x="0" y="18.5996">h</tspan><tspan x="11.3555" y="18.5996">osts h</tspan><tspan class="cls-11" x="62.543" y="18.5996">a</tspan><tspan class="cls-12" x="72.2988" y="18.5996">v</tspan><tspan x="82.4414" y="18.5996">e </tspan><tspan class="cls-14" x="96.4424" y="18.5996">f</tspan><tspan x="102.9287" y="18.5996">ewer than 20 st</tspan><tspan class="cls-11" x="233.0332" y="18.5996">a</tspan><tspan x="242.7891" y="18.5996">ys per </tspan><tspan class="cls-12" x="299.5928" y="18.5996">y</tspan><tspan x="310.1309" y="18.5996">ea</tspan><tspan class="cls-15" x="329.6074" y="18.5996">r</tspan><tspan x="335.6631" y="18.5996">, </tspan><tspan x="0" y="37.2002">but o</tspan><tspan class="cls-7" x="42.8291" y="37.2002">n</tspan><tspan x="54.167" y="37.2002">e in six a</tspan><tspan class="cls-9" x="129.6387" y="37.2002">r</tspan><tspan x="137.0479" y="37.2002">e </tspan><tspan class="cls-9" x="151.0488" y="37.2002">r</tspan><tspan x="158.458" y="37.2002">ented out </tspan><tspan class="cls-16" x="243.29" y="37.2002">a</tspan><tspan x="252.4746" y="37.2002">t least 60 ti</tspan><tspan class="cls-7" x="346.4736" y="37.2002">m</tspan><tspan x="363.1289" y="37.2002">es per </tspan><tspan class="cls-12" x="418.8691" y="37.2002">y</tspan><tspan x="429.4072" y="37.2002">ea</tspan><tspan class="cls-15" x="448.8838" y="37.2002">r</tspan><tspan x="454.9395" y="37.2002">.</tspan></text><text class="cls-17" transform="translate(35.0266 101.75)">731</text><text class="cls-17" transform="translate(101.0266 252.75)">368</text><text class="cls-17" transform="translate(166.0266 301.75)">254</text><text class="cls-17" transform="translate(235.0266 349.75)">139</text><text class="cls-17" transform="translate(297.0266 346.75)">144</text><text class="cls-17" transform="translate(365.0266 367.75)">92</text><text class="cls-17" transform="translate(430.0266 261.75)">345</text><text class="cls-18" transform="translate(320.7197 425.5195)">Source: DataLensDC, Inside Airbnb</text></svg>